<svg xmlns="http://www.w3.org/2000/svg" version="1.1" xmlns:xlink="http://www.w3.org/1999/xlink" xmlns:svgjs="http://svgjs.com/svgjs" width="1440" height="560" preserveAspectRatio="none" viewBox="0 0 1440 560"><g mask="url(&quot;#SvgjsMask1007&quot;)" fill="none"><path d="M -445.58484298660375,129 C -301.58,193.2 -13.58,428 274.41515701339625,450 C 562.42,472 706.42,271.2 994.4151570133963,239 C 1282.42,206.8 1625.3,292.4 1714.4151570133963,289 C 1803.53,285.6 1494.88,235.4 1440,222" stroke="rgba(3, 11, 20, 0.81)" stroke-width="2"></path><path d="M -853.5966105322485,265 C -709.6,280.4 -421.6,341.6 -133.59661053224852,342 C 154.4,342.4 298.4,266.8 586.4033894677515,267 C 874.4,267.2 1135.68,370.8 1306.4033894677514,343 C 1477.12,315.2 1413.28,171 1440,128" stroke="rgba(3, 11, 20, 0.81)" stroke-width="2"></path><path d="M -1245.1255910809978,180 C -1101.13,200.6 -813.13,286.8 -525.1255910809979,283 C -237.13,279.2 -93.13,150.4 194.87440891900212,161 C 482.87,171.6 665.85,338 914.8744089190021,336 C 1163.9,334 1334.97,188 1440,151" stroke="rgba(3, 11, 20, 0.81)" stroke-width="2"></path><path d="M -759.2468303204561,270 C -615.25,296.4 -327.25,406 -39.246830320456105,402 C 248.75,398 392.75,260 680.7531696795439,250 C 968.75,240 1248.9,367.2 1400.7531696795438,352 C 1552.6,336.8 1432.15,209.6 1440,174" stroke="rgba(3, 11, 20, 0.81)" stroke-width="2"></path></g><defs><mask id="SvgjsMask1007"><rect width="1440" height="560" fill="#ffffff"></rect></mask></defs></svg>